<svg width="24" height="24" viewBox="0 0 24 24" fill="none" xmlns="http://www.w3.org/2000/svg">
<g id="Check">
<g id="Group">
<path id="6-Check" d="M11.076 21.2735C11.0123 21.2735 10.9493 21.2603 10.891 21.2348C10.8327 21.2093 10.7803 21.172 10.737 21.1252L1.59918 11.2407C1.53827 11.1748 1.49788 11.0926 1.48298 11.0041C1.46807 10.9156 1.47928 10.8247 1.51524 10.7424C1.55121 10.6602 1.61036 10.5903 1.68546 10.5411C1.76056 10.492 1.84835 10.4659 1.93809 10.4659H6.33655C6.40259 10.4659 6.46786 10.48 6.52796 10.5074C6.58805 10.5348 6.64158 10.5748 6.68492 10.6246L9.73883 14.138C10.0689 13.4325 10.7078 12.2578 11.829 10.8264C13.4864 8.71021 16.5694 5.59801 21.8441 2.78854C21.946 2.73425 22.0646 2.72016 22.1764 2.74905C22.2883 2.77794 22.3852 2.84771 22.4481 2.94459C22.511 3.04147 22.5353 3.15841 22.5162 3.27232C22.497 3.38623 22.4359 3.48883 22.3448 3.55986C22.3247 3.5756 20.291 5.17714 17.9504 8.11063C15.7963 10.8102 12.9329 15.2243 11.5238 20.9229C11.4991 21.0231 11.4415 21.112 11.3603 21.1756C11.2791 21.2392 11.1789 21.2737 11.0758 21.2737L11.076 21.2735Z" fill="#6AFFB3"/>
</g>
</g>
</svg>
