<svg width="76" height="76" viewBox="0 0 76 76" fill="none" xmlns="http://www.w3.org/2000/svg">
<g id="Icon" opacity="0.1">
<g id="Group">
<path id="Vector" d="M26.3075 35.0747H16.0766C14.8586 35.0747 13.8231 34.6485 12.9704 33.7959C12.1182 32.9432 11.6916 31.9081 11.6916 30.6897V29.2288C11.6916 26.0011 12.8336 23.2457 15.1175 20.9618C17.4013 18.6787 20.1572 17.5366 23.3846 17.5366H26.3075C27.099 17.5366 27.7838 17.2472 28.3626 16.6689C28.9411 16.0903 29.2303 15.4055 29.2303 14.6138V8.76709C29.2303 7.97554 28.9409 7.29006 28.3626 6.71144C27.784 6.13362 27.0992 5.84375 26.3075 5.84375H23.3846C20.2176 5.84375 17.1962 6.46092 14.3185 7.69351C11.4411 8.9269 8.95221 10.5941 6.85098 12.6954C4.7499 14.7956 3.08315 17.2847 1.84992 20.1624C0.616694 23.0398 0 26.062 0 29.2287V61.3817C0 63.8189 0.852173 65.8883 2.55732 67.594C4.26262 69.2989 6.33363 70.1512 8.76937 70.1512H26.3086C28.7442 70.1512 30.8145 69.2989 32.52 67.594C34.2248 65.8883 35.0775 63.8189 35.0775 61.3817V43.8441C35.0775 41.4074 34.2248 39.338 32.5189 37.632C30.8142 35.9274 28.743 35.0747 26.3075 35.0747ZM73.4438 37.632C71.7391 35.9274 69.6686 35.0747 67.2324 35.0747H57.0017C55.7843 35.0747 54.7478 34.6485 53.8966 33.7959C53.0436 32.9432 52.6178 31.9081 52.6178 30.6897V29.2288C52.6178 26.0011 53.7598 23.2457 56.0426 20.9618C58.3256 18.6787 61.0813 17.5366 64.3103 17.5366H67.2326C68.0243 17.5366 68.7096 17.2472 69.2879 16.6689C69.8659 16.0903 70.1562 15.4055 70.1562 14.6138V8.76709C70.1562 7.97554 69.866 7.29006 69.2879 6.71144C68.7097 6.13362 68.0244 5.84375 67.2326 5.84375H64.3103C61.1416 5.84375 58.1208 6.46092 55.2423 7.69351C52.3654 8.9269 49.8773 10.5941 47.7761 12.6954C45.6748 14.7956 44.0073 17.2847 42.7745 20.1624C41.5416 23.0398 40.9241 26.062 40.9241 29.2287V61.3817C40.9241 63.8189 41.7771 65.8883 43.4818 67.594C45.1866 69.2989 47.2571 70.1512 49.6932 70.1512H67.2314C69.6677 70.1512 71.738 69.2989 73.4427 67.594C75.1486 65.8883 75.9998 63.8189 75.9998 61.3817V43.8441C76 41.4072 75.1486 39.338 73.4438 37.632Z" fill="white"/>
</g>
</g>
</svg>
