<svg width="48" height="48" viewBox="0 0 48 48" fill="none" xmlns="http://www.w3.org/2000/svg">
<path d="M46.9683 20.1731L38.8653 12.0705C38.734 11.9387 38.5112 11.8582 38.3532 11.8582H30.7531V10.4488C30.7531 10.2975 30.6743 10.0699 30.5409 9.93666L21.7071 1.10287C21.5747 0.970031 21.3463 0.890625 21.1949 0.890625H4.94441C3.0755 0.890625 1.55469 2.41153 1.55469 4.28072V34.8405C1.55469 36.7098 3.07559 38.2306 4.94441 38.2306H20.2775V43.0592C20.2775 44.8068 21.6993 46.2286 23.4473 46.2286H44.0108C45.7588 46.2286 47.1806 44.8068 47.1806 43.0592V20.6853C47.1806 20.5381 47.1035 20.3085 46.9683 20.1731ZM38.9508 14.2045L44.8425 20.096L38.438 20.6421L38.9508 14.2045ZM28.4024 9.84675L21.2226 10.3964L21.7928 3.237L28.4024 9.84675ZM3.00341 34.8406V4.28081C3.00341 3.21019 3.87416 2.33944 4.94441 2.33944H20.4105L19.7781 10.2808C19.7619 10.4834 19.7877 10.6871 19.8541 10.8791C19.9205 11.0712 20.0259 11.2474 20.1637 11.3967C20.3015 11.546 20.4688 11.6652 20.6549 11.7467C20.841 11.8282 21.042 11.8702 21.2452 11.8702C21.3383 11.8702 21.1411 11.8817 29.3043 11.2332V34.8405C29.3043 35.9111 28.4336 36.7819 27.3626 36.7819H4.94441C3.87416 36.782 3.00341 35.9112 3.00341 34.8406ZM44.0108 44.78H23.4473C22.498 44.78 21.7262 44.0082 21.7262 43.0593V38.2307H27.3626C29.2321 38.2307 30.753 36.7098 30.753 34.8406V13.307H37.5686L36.9935 20.5275C36.9256 21.3875 37.6396 22.1107 38.5115 22.0448L45.7318 21.4698V43.0593C45.7318 44.0082 44.9601 44.78 44.0108 44.78Z" fill="#1B072C"/>
<path d="M40.8848 24.9012H33.3866C32.9862 24.9012 32.6623 25.2255 32.6623 25.6255C32.6623 26.0254 32.9863 26.3498 33.3866 26.3498H40.8848C41.2852 26.3498 41.6091 26.0254 41.6091 25.6255C41.6091 25.2255 41.2852 24.9012 40.8848 24.9012ZM40.8848 31.309H33.3866C32.9862 31.309 32.6623 31.6334 32.6623 32.0333C32.6623 32.4332 32.9863 32.7576 33.3866 32.7576H40.8848C41.2852 32.7576 41.6091 32.4332 41.6091 32.0333C41.6091 31.6334 41.2852 31.309 40.8848 31.309ZM40.8848 37.7168H30.3569C30.2618 37.7168 30.1676 37.7355 30.0797 37.7719C29.9918 37.8083 29.9119 37.8616 29.8447 37.9289C29.7774 37.9962 29.7241 38.076 29.6877 38.1639C29.6513 38.2518 29.6326 38.346 29.6326 38.4411C29.6326 38.5362 29.6513 38.6304 29.6877 38.7183C29.7241 38.8062 29.7774 38.8861 29.8447 38.9533C29.9119 39.0206 29.9918 39.0739 30.0797 39.1103C30.1676 39.1467 30.2618 39.1654 30.3569 39.1654H40.8848C40.98 39.1654 41.0742 39.1467 41.162 39.1103C41.2499 39.0739 41.3298 39.0206 41.397 38.9533C41.4643 38.8861 41.5177 38.8062 41.5541 38.7183C41.5904 38.6304 41.6092 38.5362 41.6091 38.4411C41.6092 38.346 41.5905 38.2518 41.5541 38.1639C41.5177 38.076 41.4643 37.9961 41.3971 37.9289C41.3298 37.8616 41.2499 37.8082 41.1621 37.7719C41.0742 37.7355 40.98 37.7168 40.8848 37.7168ZM42.1843 7.86895C42.2515 7.93623 42.3314 7.9896 42.4193 8.02601C42.5071 8.06243 42.6013 8.08117 42.6965 8.08117C42.7916 8.08117 42.8858 8.06243 42.9736 8.02601C43.0615 7.9896 43.1414 7.93623 43.2086 7.86895L45.2165 5.86148C45.3622 5.72902 45.4574 5.54236 45.4574 5.32983C45.4574 5.1248 45.3707 4.94161 45.2338 4.80989L43.2136 2.79033C42.9306 2.50739 42.4722 2.50739 42.1893 2.79033C41.9063 3.07327 41.9063 3.53198 42.1893 3.81464L42.9804 4.60552H32.1318C31.7314 4.60552 31.4075 4.92989 31.4075 5.32983C31.4075 5.72977 31.7315 6.05414 32.1318 6.05414H42.975L42.1843 6.84464C42.117 6.91189 42.0636 6.99173 42.0272 7.07961C41.9908 7.16748 41.9721 7.26167 41.9721 7.3568C41.9721 7.45192 41.9908 7.54611 42.0272 7.63399C42.0636 7.72187 42.117 7.80171 42.1843 7.86895ZM1.04389 44.8786L3.06346 46.8982C3.1307 46.9655 3.21054 47.0189 3.29842 47.0553C3.3863 47.0917 3.48049 47.1104 3.57561 47.1104C3.67073 47.1104 3.76493 47.0917 3.8528 47.0553C3.94068 47.0189 4.02052 46.9655 4.08777 46.8982C4.15505 46.831 4.20842 46.7511 4.24483 46.6632C4.28124 46.5754 4.29998 46.4812 4.29998 46.386C4.29998 46.2909 4.28124 46.1967 4.24483 46.1089C4.20842 46.021 4.15505 45.9411 4.08777 45.8739L3.29699 45.0831L14.1446 45.0834C14.5443 45.0834 14.8689 44.759 14.8689 44.3591C14.8689 43.9591 14.5449 43.6348 14.1446 43.6348L3.30252 43.6344L4.09339 42.8435C4.37633 42.5606 4.37633 42.1021 4.09339 41.8192C3.81046 41.5363 3.35202 41.5363 3.06908 41.8192L1.06067 43.8276C0.738737 44.121 0.747268 44.5931 1.04389 44.8786ZM23.31 14.2672H8.99483C8.59442 14.2672 8.27052 14.5916 8.27052 14.9915C8.27052 15.3915 8.59452 15.7158 8.99483 15.7158H23.3101C23.7105 15.7158 24.0344 15.3915 24.0344 14.9915C24.0344 14.5916 23.7104 14.2672 23.31 14.2672ZM23.31 20.675H8.99483C8.59442 20.675 8.27052 20.9994 8.27052 21.3993C8.27052 21.7993 8.59452 22.1236 8.99483 22.1236H23.3101C23.7105 22.1236 24.0344 21.7993 24.0344 21.3993C24.0344 20.9994 23.7104 20.675 23.31 20.675ZM23.31 27.0827H8.99483C8.59442 27.0827 8.27052 27.4071 8.27052 27.807C8.27052 28.207 8.59452 28.5314 8.99483 28.5314H23.3101C23.7105 28.5314 24.0344 28.207 24.0344 27.807C24.0344 27.4071 23.7104 27.0827 23.31 27.0827Z" fill="#1B072C"/>
</svg>
