<svg width="48" height="48" viewBox="0 0 48 48" fill="none" xmlns="http://www.w3.org/2000/svg">
<g clip-path="url(#clip0_9567_4808)">
<path d="M4.88534 10.8023C2.73275 13.0957 1.41406 16.1811 1.41406 19.5747C1.41406 26.6568 7.15522 32.3979 14.2372 32.3979C21.3192 32.3979 27.0603 26.6567 27.0603 19.5747C27.0603 15.7379 25.3747 12.2953 22.7042 9.94531" stroke="#1B072C" stroke-width="1.5" stroke-miterlimit="10" stroke-linecap="round" stroke-linejoin="round"/>
<path d="M17.8548 21.6832C17.8548 23.0616 16.7374 24.179 15.359 24.179L12.1953 24.1901V19.1875H15.359C16.7374 19.1875 17.8548 20.3049 17.8548 21.6832Z" stroke="#1B072C" stroke-width="1.5" stroke-miterlimit="10" stroke-linecap="round" stroke-linejoin="round"/>
<path d="M12.1953 19.1975V14.921H14.8887C16.067 14.921 17.0222 15.8762 17.0222 17.0546C17.0222 18.2329 16.067 19.1882 14.8887 19.1882M15.2923 13.5973V14.9592M13.1198 13.5973V14.921M15.2923 24.1823V25.5551M13.1198 24.1931V25.5169M35.5139 24.5316C35.5139 24.5316 34.5147 23.6101 32.9745 24.0739C31.5603 24.4999 31.2091 26.4349 32.1702 27.1887C32.722 27.6215 33.5523 27.9773 34.6713 28.3729C37.1758 29.2582 36.25 32.7902 33.7024 32.8072C32.7082 32.8139 32.2434 32.7507 31.3701 32.1794M33.7024 22.751V34.0965M41.7568 4.71522L36.9923 1.01997C36.0087 0.257123 34.5779 0.958092 34.5779 2.20281C34.5779 2.43502 34.4857 2.65771 34.3215 2.8219C34.1573 2.9861 33.9346 3.07834 33.7024 3.07834H15.4513C14.3327 3.07834 13.4259 3.98509 13.4259 5.10372V7.92137C13.4259 9.0399 14.3326 9.94675 15.4513 9.94675H33.7024C33.9346 9.94675 34.1573 10.039 34.3215 10.2032C34.4857 10.3674 34.5779 10.5901 34.5779 10.8223C34.5779 12.067 36.0087 12.7681 36.9923 12.0051L41.7568 8.30978C42.931 7.39928 42.931 5.62581 41.7568 4.71522Z" stroke="#1B072C" stroke-width="1.5" stroke-miterlimit="10" stroke-linecap="round" stroke-linejoin="round"/>
<path d="M14.9778 9.88722C14.7316 9.86868 14.4849 9.85939 14.238 9.85938C8.87278 9.85938 4.52344 14.2087 4.52344 19.5739C4.52344 24.9392 8.87278 29.2885 14.238 29.2885C19.6032 29.2885 23.9526 24.9392 23.9526 19.5739C23.9526 14.6454 20.2822 10.5747 15.526 9.9445M29.6698 44.9193H32.545C33.6636 44.9193 34.5704 44.0126 34.5704 42.894V41.2182M25.2889 38.0509H14.2939C14.0617 38.0509 13.839 37.9587 13.6748 37.7945C13.5106 37.6303 13.4183 37.4076 13.4183 37.1754C13.4183 35.9306 11.9875 35.2296 11.004 35.9925L6.23944 39.6878C5.06541 40.5984 5.06541 42.3718 6.23944 43.2824L11.004 46.9777C11.9876 47.7406 13.4183 47.0396 13.4183 45.7949C13.4183 45.5627 13.5106 45.34 13.6748 45.1758C13.839 45.0116 14.0617 44.9193 14.2939 44.9193H26.3886M24.0607 27.8161C24.048 28.0176 24.0416 28.2195 24.0413 28.4215C24.0413 33.7867 28.3907 38.1361 33.7559 38.1361C39.1211 38.1361 43.4705 33.7867 43.4705 28.4215C43.4705 23.0563 39.1211 18.7069 33.7559 18.7069C31.0867 18.7069 28.6693 19.7837 26.9135 21.5262" stroke="#1B072C" stroke-width="1.5" stroke-miterlimit="10" stroke-linecap="round" stroke-linejoin="round"/>
<path d="M21.0836 30.4197C22.0415 36.5546 27.3484 41.2486 33.7521 41.2486C40.8342 41.2486 46.5752 35.5075 46.5752 28.4255C46.5752 21.3435 40.8341 15.6024 33.7521 15.6024C31.2332 15.6024 28.8843 16.3292 26.9027 17.5838M13.4196 6.78125C11.2871 6.91338 9.22204 7.57927 7.41406 8.71775" stroke="#1B072C" stroke-width="1.5" stroke-miterlimit="10" stroke-linecap="round" stroke-linejoin="round"/>
</g>
<defs>
<clipPath id="clip0_9567_4808">
<rect width="48" height="48" fill="white"/>
</clipPath>
</defs>
</svg>
