<svg width="38" height="38" viewBox="0 0 38 38" fill="none" xmlns="http://www.w3.org/2000/svg">
<g id="Group">
<g id="Outline">
<path id="Vector" d="M7.75 22.75H1.5C1.16848 22.75 0.850537 22.8817 0.616116 23.1161C0.381696 23.3505 0.25 23.6685 0.25 24V37.125C0.25 37.2908 0.315848 37.4497 0.433058 37.5669C0.550268 37.6842 0.70924 37.75 0.875 37.75H8.375C8.54076 37.75 8.69973 37.6842 8.81694 37.5669C8.93415 37.4497 9 37.2908 9 37.125V24C9 23.6685 8.8683 23.3505 8.63388 23.1161C8.39946 22.8817 8.08152 22.75 7.75 22.75ZM7.75 36.5H1.5V24H7.75V36.5Z" fill="#6AFFB3"/>
<path id="Vector_2" d="M9 1.5C9.34518 1.5 9.625 1.22018 9.625 0.875C9.625 0.529822 9.34518 0.25 9 0.25C8.65482 0.25 8.375 0.529822 8.375 0.875C8.375 1.22018 8.65482 1.5 9 1.5Z" fill="#6AFFB3"/>
<path id="Vector_3" d="M36.5 11.5H30.25C29.9185 11.5 29.6005 11.6317 29.3661 11.8661C29.1317 12.1005 29 12.4185 29 12.75V20.0225C27.1583 19.4219 25.1622 19.5026 23.375 20.25V17.75C23.375 17.4185 23.2433 17.1005 23.0089 16.8661C22.7745 16.6317 22.4565 16.5 22.125 16.5H15.875C15.5435 16.5 15.2255 16.6317 14.9911 16.8661C14.7567 17.1005 14.625 17.4185 14.625 17.75V37.125C14.625 37.2908 14.6908 37.4497 14.8081 37.5669C14.9253 37.6842 15.0842 37.75 15.25 37.75H22.75C22.9158 37.75 23.0747 37.6842 23.1919 37.5669C23.3092 37.4497 23.375 37.2908 23.375 37.125V35.25C25.1619 35.998 27.1581 36.0794 29 35.4794V37.125C29 37.2908 29.0658 37.4497 29.1831 37.5669C29.3003 37.6842 29.4592 37.75 29.625 37.75H37.125C37.2908 37.75 37.4497 37.6842 37.5669 37.5669C37.6842 37.4497 37.75 37.2908 37.75 37.125V12.75C37.75 12.4185 37.6183 12.1005 37.3839 11.8661C37.1495 11.6317 36.8315 11.5 36.5 11.5ZM22.125 36.5H15.875V17.75H22.125V20.9144C20.9756 21.6466 20.0295 22.6568 19.374 23.8516C18.7185 25.0464 18.3749 26.3872 18.3749 27.75C18.3749 29.1128 18.7185 30.4536 19.374 31.6484C20.0295 32.8432 20.9756 33.8534 22.125 34.5856V36.5ZM26.5 34.625C25.1403 34.625 23.811 34.2218 22.6805 33.4664C21.5499 32.7109 20.6687 31.6372 20.1483 30.3809C19.628 29.1247 19.4918 27.7424 19.7571 26.4088C20.0224 25.0751 20.6772 23.8501 21.6386 22.8886C22.6001 21.9272 23.8251 21.2724 25.1588 21.0071C26.4924 20.7418 27.8747 20.878 29.1309 21.3983C30.3872 21.9187 31.4609 22.7999 32.2164 23.9305C32.9718 25.061 33.375 26.3903 33.375 27.75C33.3729 29.5727 32.6478 31.3201 31.359 32.609C30.0701 33.8978 28.3227 34.6229 26.5 34.625ZM36.5 36.5H30.25V34.9506C31.5687 34.2661 32.674 33.2325 33.4455 31.9628C34.217 30.693 34.625 29.2358 34.625 27.75C34.625 26.2642 34.217 24.807 33.4455 23.5372C32.674 22.2675 31.5687 21.2339 30.25 20.5494V12.75H36.5V36.5Z" fill="#6AFFB3"/>
<path id="Vector_4" d="M28.3773 23.3726V22.7476C28.3773 22.5818 28.3114 22.4228 28.1942 22.3056C28.077 22.1884 27.918 22.1226 27.7523 22.1226C27.5865 22.1226 27.4275 22.1884 27.3103 22.3056C27.1931 22.4228 27.1273 22.5818 27.1273 22.7476V23.3726H25.8773V22.7476C25.8773 22.5818 25.8114 22.4228 25.6942 22.3056C25.577 22.1884 25.418 22.1226 25.2523 22.1226C25.0865 22.1226 24.9275 22.1884 24.8103 22.3056C24.6931 22.4228 24.6273 22.5818 24.6273 22.7476V23.3726H22.7523C22.5865 23.3726 22.4275 23.4384 22.3103 23.5556C22.1931 23.6728 22.1273 23.8318 22.1273 23.9976C22.1273 24.1633 22.1931 24.3223 22.3103 24.4395C22.4275 24.5567 22.5865 24.6226 22.7523 24.6226H23.3773V30.8726H22.7523C22.5865 30.8726 22.4275 30.9384 22.3103 31.0556C22.1931 31.1728 22.1273 31.3318 22.1273 31.4976C22.1273 31.6633 22.1931 31.8223 22.3103 31.9395C22.4275 32.0567 22.5865 32.1226 22.7523 32.1226H24.6273V32.7476C24.6273 32.9133 24.6931 33.0723 24.8103 33.1895C24.9275 33.3067 25.0865 33.3726 25.2523 33.3726C25.418 33.3726 25.577 33.3067 25.6942 33.1895C25.8114 33.0723 25.8773 32.9133 25.8773 32.7476V32.1226H27.1273V32.7476C27.1273 32.9133 27.1931 33.0723 27.3103 33.1895C27.4275 33.3067 27.5865 33.3726 27.7523 33.3726C27.918 33.3726 28.077 33.3067 28.1942 33.1895C28.3114 33.0723 28.3773 32.9133 28.3773 32.7476V32.1226C28.8863 32.1248 29.3837 31.971 29.8026 31.6818C30.2215 31.3926 30.5416 30.982 30.72 30.5053C30.8983 30.0285 30.9261 29.5086 30.7998 29.0155C30.6735 28.5224 30.3991 28.0799 30.0135 27.7476C30.3991 27.4153 30.6735 26.9728 30.7998 26.4797C30.9261 25.9866 30.8983 25.4666 30.72 24.9899C30.5416 24.5131 30.2215 24.1025 29.8026 23.8133C29.3837 23.5241 28.8863 23.3703 28.3773 23.3726ZM28.3773 30.8726H24.6273V28.3726H28.3773C28.7088 28.3726 29.0267 28.5043 29.2612 28.7387C29.4956 28.9731 29.6273 29.2911 29.6273 29.6226C29.6273 29.9541 29.4956 30.272 29.2612 30.5065C29.0267 30.7409 28.7088 30.8726 28.3773 30.8726ZM28.3773 27.1226H24.6273V24.6226H28.3773C28.7088 24.6226 29.0267 24.7543 29.2612 24.9887C29.4956 25.2231 29.6273 25.5411 29.6273 25.8726C29.6273 26.2041 29.4956 26.522 29.2612 26.7565C29.0267 26.9909 28.7088 27.1226 28.3773 27.1226ZM0.877275 1.49757H6.50227C6.66804 1.49757 6.82701 1.43173 6.94422 1.31451C7.06143 1.1973 7.12727 1.03833 7.12727 0.872573C7.12727 0.706813 7.06143 0.547842 6.94422 0.430631C6.82701 0.313421 6.66804 0.247573 6.50227 0.247573H0.877275C0.711515 0.247573 0.552543 0.313421 0.435333 0.430631C0.318123 0.547842 0.252275 0.706813 0.252275 0.872573C0.252275 1.03833 0.318123 1.1973 0.435333 1.31451C0.552543 1.43173 0.711515 1.49757 0.877275 1.49757ZM0.877275 4.62257H9.00227C9.16804 4.62257 9.32701 4.55673 9.44422 4.43951C9.56143 4.3223 9.62727 4.16333 9.62727 3.99757C9.62727 3.83181 9.56143 3.67284 9.44422 3.55563C9.32701 3.43842 9.16804 3.37257 9.00227 3.37257H0.877275C0.711515 3.37257 0.552543 3.43842 0.435333 3.55563C0.318123 3.67284 0.252275 3.83181 0.252275 3.99757C0.252275 4.16333 0.318123 4.3223 0.435333 4.43951C0.552543 4.55673 0.711515 4.62257 0.877275 4.62257ZM1.65852 20.6632C2.01299 21.0093 2.48874 21.203 2.98415 21.203C3.47955 21.203 3.95531 21.0093 4.30977 20.6632C7.11102 17.8019 15.6348 9.33882 15.6348 9.33882C15.6348 9.33882 19.0098 13.0307 20.1217 14.2763C20.3513 14.5232 20.6281 14.7216 20.9356 14.8599C21.2432 14.9982 21.5753 15.0736 21.9124 15.0815C22.2495 15.0895 22.5847 15.03 22.8985 14.9064C23.2122 14.7828 23.498 14.5977 23.7391 14.3619C25.6854 12.3726 31.6104 6.48757 31.6104 6.48757C31.6104 6.48757 31.8754 6.75007 31.9617 6.83945C32.1333 7.00457 32.3483 7.11772 32.5816 7.16582C32.8149 7.21392 33.057 7.195 33.28 7.11125C33.503 7.0275 33.6977 6.88235 33.8417 6.69257C33.9857 6.50279 34.073 6.27614 34.0935 6.03882C34.1479 4.90195 34.396 1.49757 34.396 1.49757C34.4067 1.31997 34.3796 1.14213 34.3164 0.97578C34.2533 0.809434 34.1556 0.658369 34.0298 0.532559C33.904 0.406749 33.7529 0.309054 33.5866 0.245923C33.4202 0.182792 33.2424 0.155662 33.0648 0.166323L28.5223 0.469448C28.2842 0.488272 28.0564 0.574537 27.8656 0.71814C27.6748 0.861743 27.5288 1.05674 27.4448 1.2803C27.3608 1.50386 27.3422 1.74673 27.3912 1.98046C27.4403 2.21419 27.5549 2.42912 27.7217 2.60007L28.0742 2.95257L22.0567 8.97007C22.0567 8.97007 18.6998 5.3157 17.6067 4.07507C17.3795 3.81952 17.1028 3.61278 16.7933 3.46739C16.4838 3.32201 16.148 3.24102 15.8063 3.22933C15.4645 3.21764 15.124 3.2755 14.8053 3.39939C14.4866 3.52329 14.1964 3.71064 13.9523 3.95007C10.6748 7.25882 4.10602 13.8726 0.774775 17.1269C0.428342 17.4814 0.234375 17.9573 0.234375 18.4529C0.234375 18.9485 0.428342 19.4244 0.774775 19.7788C0.9979 19.9976 1.43977 20.4394 1.65852 20.6632ZM1.65852 18.0107C5.00227 14.7651 11.6273 8.2107 14.8379 4.83195C14.9641 4.71542 15.1122 4.62508 15.2735 4.56616C15.4349 4.50724 15.6063 4.48091 15.7779 4.4887C15.9495 4.49649 16.1178 4.53824 16.2732 4.61154C16.4285 4.68483 16.5678 4.78821 16.6829 4.9157C17.8417 6.31632 20.3704 8.93382 21.5735 10.2957C21.6312 10.357 21.7005 10.4061 21.7774 10.4404C21.8542 10.4747 21.9371 10.4933 22.0213 10.4953C22.1054 10.4973 22.1891 10.4825 22.2675 10.4519C22.3459 10.4213 22.4174 10.3754 22.4779 10.3169C24.1773 8.5557 29.401 3.39445 29.401 3.39445C29.5182 3.27724 29.584 3.1183 29.584 2.95257C29.584 2.78685 29.5182 2.6279 29.401 2.5107L28.6067 1.71632L33.1485 1.4132L32.846 5.9557L32.0523 5.16195C31.9351 5.04478 31.7761 4.97896 31.6104 4.97896C31.4447 4.97896 31.2857 5.04478 31.1685 5.16195C31.1685 5.16195 24.9154 11.3794 22.856 13.4744C22.7354 13.592 22.5925 13.6844 22.4357 13.746C22.2789 13.8076 22.1113 13.8372 21.9429 13.8332C21.7745 13.8292 21.6085 13.7916 21.4548 13.7226C21.3012 13.6536 21.1628 13.5545 21.0479 13.4313C19.8279 12.0657 17.3535 9.36445 16.1204 8.01132C16.0635 7.94876 15.9945 7.8984 15.9175 7.8633C15.8406 7.82819 15.7573 7.80906 15.6728 7.80707C15.5882 7.80509 15.5041 7.82028 15.4256 7.85174C15.3471 7.88319 15.2758 7.93025 15.216 7.99007C12.2685 10.9369 6.34102 16.7982 3.42727 19.7776C3.30912 19.8929 3.15053 19.9575 2.9854 19.9575C2.82027 19.9575 2.66168 19.8929 2.54352 19.7776C2.32477 19.5538 1.8829 19.1119 1.65977 18.8932C1.54432 18.7754 1.47955 18.6171 1.47931 18.4522C1.47908 18.2873 1.5434 18.1288 1.65852 18.0107Z" fill="#6AFFB3"/>
</g>
</g>
</svg>
