<svg width="537" height="378" viewBox="0 0 537 378" fill="none" xmlns="http://www.w3.org/2000/svg">
<g clip-path="url(#clip0_9637_1312)">
<mask id="mask0_9637_1312" style="mask-type:luminance" maskUnits="userSpaceOnUse" x="-231" y="-268" width="818" height="815">
<path d="M586.442 -267.227H-230.141V546.458H586.442V-267.227Z" fill="white"/>
</mask>
<g mask="url(#mask0_9637_1312)">
<g opacity="0.4955">
<path d="M150.967 19.4099L149.641 20.1773C149.019 20.5344 148.201 20.3631 147.811 19.7945L146.977 18.5752C146.588 18.0062 146.774 17.2542 147.392 16.8963L148.719 16.1246C149.337 15.7667 150.155 15.9376 150.548 16.5069L151.382 17.731C151.771 18.2996 151.586 19.052 150.967 19.4099Z" fill="#FFCC3D"/>
</g>
<g opacity="0.785469">
<path d="M386.276 47.5407L381.996 50.0184C379.988 51.1699 377.348 50.6177 376.093 48.7828L373.398 44.8469C372.143 43.012 372.743 40.5842 374.738 39.4298L379.021 36.9392C381.016 35.7849 383.655 36.3362 384.925 38.1739L387.615 42.1236C388.871 43.9585 388.271 46.3854 386.276 47.5407Z" fill="#FFCC3D"/>
</g>
<g opacity="0.183393">
<path d="M431.035 290.463L427.355 292.593C425.629 293.584 423.358 293.109 422.279 291.531L419.963 288.148C418.884 286.569 419.398 284.481 421.113 283.489L424.797 281.347C426.512 280.354 428.78 280.829 429.873 282.409L432.187 285.805C433.266 287.383 432.75 289.469 431.035 290.463Z" fill="#FFCC3D"/>
</g>
<path d="M238.547 242.004L188.662 332.529C181.962 345.609 168.473 354.549 153.189 356.32C151.791 356.482 150.373 356.582 148.947 356.621C134.575 357.02 120.986 351.004 112.453 340.475L46.1816 260.883C42.7867 257.881 11.9948 233.034 10.5668 231.198C4.25912 223.211 8.03002 214.93 9.80001 214.181C9.54148 205.683 15.3509 204.187 16.4818 203.979C16.6022 203.952 16.6561 203.946 16.6561 203.946C16.4112 196.612 24.4149 194.127 24.4149 194.127L5.79041 170.943C3.26167 167.814 3.35456 163.469 5.99911 160.337C7.02793 159.14 8.29644 158.234 9.69959 157.654C13.0612 156.289 17.1029 156.719 19.9618 159.149L57.3622 188.544L76.5837 192.721L92.9064 217.942L140.962 274.17L177.593 208.014L238.547 242.004Z" fill="white"/>
<path d="M238.547 242.004L188.662 332.529C181.962 345.609 168.473 354.549 153.189 356.32C151.791 356.482 150.373 356.582 148.947 356.621C134.575 357.02 120.986 351.004 112.453 340.475L46.1816 260.883C42.7867 257.881 11.9948 233.034 10.5668 231.198C4.25912 223.211 8.03002 214.93 9.80001 214.181C9.54148 205.683 15.3509 204.187 16.4818 203.979C16.6022 203.952 16.6561 203.946 16.6561 203.946C16.4112 196.612 24.4149 194.127 24.4149 194.127L5.79041 170.943C3.26167 167.814 3.35456 163.469 5.99911 160.337C7.02793 159.14 8.29644 158.234 9.69959 157.654C13.0612 156.289 17.1029 156.719 19.9618 159.149L57.3622 188.544L76.5837 192.721L92.9064 217.942L140.962 274.17L177.593 208.014L238.547 242.004Z" stroke="#030047" stroke-width="1.3" stroke-linecap="round" stroke-linejoin="round"/>
<path d="M34.6523 227.059C34.6523 227.059 41.8215 242.301 24.7148 237.726C24.7148 237.726 19.5266 236.691 10.5227 231.288C4.22296 223.3 7.98545 215.003 9.76063 214.27L34.6523 227.059Z" fill="white"/>
<path d="M34.6523 227.059C34.6523 227.059 41.8215 242.301 24.7148 237.726C24.7148 237.726 19.5266 236.691 10.5227 231.288C4.22296 223.3 7.98545 215.003 9.76063 214.27L34.6523 227.059Z" stroke="#030047" stroke-width="1.3" stroke-linecap="round" stroke-linejoin="round"/>
<path d="M43.3728 216.687C43.2944 216.689 43.2208 216.704 43.1547 216.702C35.6564 217.177 16.6473 204.034 16.6473 204.034C16.3926 196.684 24.3967 194.208 24.3967 194.208L46.0306 205.725C51.3309 208.537 49.5316 216.162 43.3728 216.687Z" fill="white"/>
<path d="M43.3728 216.687C43.2944 216.689 43.2208 216.704 43.1547 216.702C35.6564 217.177 16.6473 204.034 16.6473 204.034C16.3926 196.684 24.3967 194.208 24.3967 194.208L46.0306 205.725C51.3309 208.537 49.5316 216.162 43.3728 216.687Z" stroke="#030047" stroke-width="1.3" stroke-linecap="round" stroke-linejoin="round"/>
<path d="M40.5809 225.361C33.2432 232.032 9.77628 214.273 9.77628 214.273C9.52276 205.763 15.3231 204.268 16.4487 204.068C16.4487 204.068 47.8533 218.749 40.5809 225.361Z" fill="white"/>
<path d="M40.5809 225.361C33.2432 232.032 9.77628 214.273 9.77628 214.273C9.52276 205.763 15.3231 204.268 16.4487 204.068C16.4487 204.068 47.8533 218.749 40.5809 225.361Z" stroke="#030047" stroke-width="1.3" stroke-linecap="round" stroke-linejoin="round"/>
<path d="M89.3523 212.813L74.0959 188.863C71.7744 183.097 64.8945 180.134 58.5215 182.154L37.4917 188.817C35.3379 189.499 34.3061 191.776 35.3086 193.636C37.7472 198.163 43.2544 200.509 48.6383 199.317L59.331 196.948L58.5612 202.769C55.4635 208.298 56.7332 211.65 61.3513 217.973" fill="white"/>
<path d="M89.3523 212.813L74.0959 188.863C71.7744 183.097 64.8945 180.134 58.5215 182.154L37.4917 188.817C35.3379 189.499 34.3061 191.776 35.3086 193.636C37.7472 198.163 43.2544 200.509 48.6383 199.317L59.331 196.948L58.5612 202.769C55.4635 208.298 56.7332 211.65 61.3513 217.973" stroke="#030047" stroke-width="1.3" stroke-linecap="round" stroke-linejoin="round"/>
<path d="M274.791 156.12L244.437 153.587C228.413 152.35 207.831 158.095 198.324 170.022L160.117 217.958L241.799 263.272L282.361 213.828L274.791 156.12Z" fill="#605EFD"/>
<path d="M198.324 170.031L160.117 217.967L241.799 263.281L282.361 213.837" stroke="#030047" stroke-width="1.3" stroke-linecap="round" stroke-linejoin="round"/>
<path d="M388.009 378.012L416.879 221.228C423.286 200.713 411.109 179.176 389.168 172.218C389.168 172.218 340.287 160.115 323.279 158.055C308.373 156.25 264.306 155.523 264.306 155.523C244.174 156.825 227.64 170.658 224.329 188.969L192.445 378.012H388.009Z" fill="#605EFD"/>
<path d="M224.316 188.977C214.422 249.76 204.104 309.863 193.617 370.991" stroke="#030047" stroke-width="1.3" stroke-linecap="round" stroke-linejoin="round"/>
<path d="M194.005 311.689H158.407C152.983 311.689 147.65 306.78 145.498 299.889L124.321 232.045C121.897 224.28 126.069 216.93 132.731 216.93H163.444C168.125 216.93 172.882 220.634 175.024 226.003L201.538 292.437C205.381 302.069 201.726 311.689 194.005 311.689Z" fill="#030047"/>
<path d="M194.005 311.689H158.407C152.983 311.689 147.65 306.78 145.498 299.889L124.321 232.045C121.897 224.28 126.069 216.93 132.731 216.93H163.444C168.125 216.93 172.882 220.634 175.024 226.003L201.538 292.437C205.381 302.069 201.726 311.689 194.005 311.689Z" stroke="#030047" stroke-width="1.3" stroke-linecap="round" stroke-linejoin="round"/>
<path d="M397.711 274.974L347.795 335.33C342.706 341.488 336.296 346.465 329.051 350.051C321.816 353.625 313.759 355.786 305.378 356.303C295.702 356.892 286.037 355.248 277.233 351.526L197.747 314.746C197.747 314.746 163.863 305.152 157.913 299.753C151.962 294.366 156.938 288.344 156.938 288.344C152.342 283.967 155.023 276.619 155.023 276.619C152.307 270.683 156.17 264.314 156.17 264.314L146.104 254.866C145.015 253.842 144.43 252.472 144.43 251.091C144.43 250.438 144.557 249.785 144.82 249.162C146.277 245.693 151.012 244.596 154.084 247C154.084 247 171.602 259.854 176.772 262.88C181.908 265.874 189.12 266.759 196.412 268.036L188.857 251.724C188.49 250.932 188.318 250.099 188.318 249.287C188.318 246.862 189.855 244.564 192.434 243.541C195.519 242.328 199.117 243.372 200.882 246.009L219.774 264.198L296.914 287.86L345.031 230.898L397.711 274.974Z" fill="white"/>
<path d="M397.711 274.974L347.795 335.33C342.706 341.488 336.296 346.465 329.051 350.051C321.816 353.625 313.759 355.786 305.378 356.303C295.702 356.892 286.037 355.248 277.233 351.526L197.747 314.746C197.747 314.746 163.863 305.152 157.913 299.753C151.962 294.366 156.938 288.344 156.938 288.344C152.342 283.967 155.023 276.619 155.023 276.619C152.307 270.683 156.17 264.314 156.17 264.314L146.104 254.866C145.015 253.842 144.43 252.472 144.43 251.091C144.43 250.438 144.557 249.785 144.82 249.162C146.277 245.693 151.012 244.596 154.084 247C154.084 247 171.602 259.854 176.772 262.88C181.908 265.874 189.12 266.759 196.412 268.036L188.857 251.724C188.49 250.932 188.318 250.099 188.318 249.287C188.318 246.862 189.855 244.564 192.434 243.541C195.519 242.328 199.117 243.372 200.882 246.009L219.774 264.198L296.914 287.86L345.031 230.898L397.711 274.974Z" stroke="#030047" stroke-width="1.3" stroke-linecap="round" stroke-linejoin="round"/>
<path d="M380.102 170.031L385.942 171.771C403.912 177.126 418.652 189.108 426.636 204.854C434.808 220.972 432.985 239.879 421.853 254.421L397.711 291.607L330.156 234.195L380.102 170.031Z" fill="#605EFD"/>
<path d="M421.853 254.4L397.711 291.586L330.156 234.174L361.064 194.469" stroke="#030047" stroke-width="1.3" stroke-linecap="round" stroke-linejoin="round"/>
<path d="M156.172 264.305C156.172 264.305 161.748 270.921 176.968 273.007" stroke="#030047" stroke-width="1.3" stroke-linecap="round" stroke-linejoin="round"/>
<path d="M155.023 276.633C155.023 276.633 160.649 282.386 175.21 282.925" stroke="#030047" stroke-width="1.3" stroke-linecap="round" stroke-linejoin="round"/>
<path d="M282.523 156.592L292.387 114.766L341.665 115.411L336.386 157.362C336.138 159.331 335.236 161.184 333.783 162.649C327.958 168.523 309.54 175.852 293.142 172.642C276.705 169.424 282.523 156.592 282.523 156.592Z" fill="white"/>
<path d="M282.523 156.592L292.387 114.766L341.665 115.411L336.386 157.362C336.138 159.331 335.236 161.184 333.783 162.649C327.958 168.523 309.54 175.852 293.142 172.642C276.705 169.424 282.523 156.592 282.523 156.592Z" stroke="#030047" stroke-width="1.3" stroke-linecap="round" stroke-linejoin="round"/>
<path d="M156.945 288.344C156.945 288.344 163.655 291.821 175.216 293.658" stroke="#030047" stroke-width="1.3" stroke-linecap="round" stroke-linejoin="round"/>
<path d="M296.914 287.859L305.511 293.658L296.914 287.859Z" fill="white"/>
<path d="M296.914 287.859L305.511 293.658" stroke="#030047" stroke-width="1.3" stroke-linecap="round" stroke-linejoin="round"/>
<path d="M339.552 125.741C365.726 102.473 362.595 62.078 362.595 62.078L290.317 29.8438C288.88 30.81 267.735 54.8773 260.409 96.6501C254.374 131.066 281.237 147.791 320.621 136.719" fill="white"/>
<path d="M339.552 125.741C365.726 102.473 362.595 62.078 362.595 62.078L290.317 29.8438C288.88 30.81 267.735 54.8773 260.409 96.6501C254.374 131.066 281.237 147.791 320.621 136.719" stroke="#030047" stroke-width="1.3" stroke-linecap="round" stroke-linejoin="round"/>
<path d="M276.695 69.6239C280.207 68.8754 283.987 70.3295 286.29 73.3157L276.695 69.6239Z" fill="white"/>
<path d="M276.695 69.6239C280.207 68.8754 283.987 70.3295 286.29 73.3157" stroke="#030047" stroke-width="1.3" stroke-linecap="round" stroke-linejoin="round"/>
<path d="M360.576 98.2363L343.14 88.7296C343.14 88.7296 342.575 91.7507 337.682 87.776C337.682 87.776 323.966 66.5567 334.971 58.8998C321.038 59.9137 307.379 58.1481 294.88 52.3919C293.617 51.8071 292.355 51.1809 291.21 50.4197C287.478 53.2644 282.132 54.4929 277.162 54.8282C268.925 55.3892 266.111 57.0293 259.363 52.6509C252.631 48.2869 250.488 40.4997 250.414 32.9143C250.37 28.3326 254.909 12.4212 272.097 20.9157C272.553 17.1587 273.014 13.3605 274.421 9.80696C275.827 6.25344 278.29 2.92242 281.885 1.08369C285.48 -0.755041 290.295 -0.804304 293.481 1.56523C297.194 4.34161 298.066 9.60036 302.129 11.9016C305.554 13.8484 309.977 12.9648 313.87 12.0112C322.245 9.95317 330.84 9.05684 339.473 9.78153C366.159 12.0223 358.409 39.1934 356.018 42.3305C356.002 42.3448 356.001 42.3559 355.985 42.3702C355.809 42.7405 355.604 43.1092 355.383 43.4636C357.71 43.1331 371.796 41.8744 379.905 57.0722C388.752 73.6987 360.576 98.2363 360.576 98.2363Z" fill="#030047"/>
<path d="M281.244 80.3068C280.236 82.7049 278.001 84.1448 276.253 83.5234C274.505 82.902 273.902 80.4546 274.91 78.0564C275.918 75.6583 278.153 74.2184 279.901 74.8398C281.649 75.4612 282.252 77.9086 281.244 80.3068Z" fill="#030047"/>
<path d="M307.25 90.1445C306.663 92.6587 304.701 94.4037 302.869 94.0413C301.036 93.679 300.025 91.3492 300.612 88.835C301.199 86.3209 303.161 84.5759 304.993 84.9382C306.826 85.3006 307.837 87.6304 307.25 90.1445Z" fill="#030047"/>
<path d="M302.234 79.9763C305.719 79.1292 309.547 80.4785 311.947 83.3979L302.234 79.9763Z" fill="white"/>
<path d="M302.234 79.9763C305.719 79.1292 309.547 80.4785 311.947 83.3979" stroke="#030047" stroke-width="1.3" stroke-linecap="round" stroke-linejoin="round"/>
<path d="M342.298 89.0538C342.298 89.0538 360.065 77.0821 368.217 81.1092C376.368 85.1363 368.429 112.622 357.753 113.79C347.077 114.958 339.461 110.06 339.461 110.06" fill="white"/>
<path d="M342.298 89.0538C342.298 89.0538 360.065 77.0821 368.217 81.1092C376.368 85.1363 368.429 112.622 357.753 113.79C347.077 114.958 339.461 110.06 339.461 110.06" stroke="#030047" stroke-width="1.3" stroke-linecap="round" stroke-linejoin="round"/>
<path d="M286.661 85.2656C284.318 88.2899 281.977 91.3158 279.634 94.3401C278.221 96.1645 276.774 98.0669 276.548 100.235C276.321 102.402 277.685 104.913 280.379 105.771" fill="white"/>
<path d="M286.661 85.2656C284.318 88.2899 281.977 91.3158 279.634 94.3401C278.221 96.1645 276.774 98.0669 276.548 100.235C276.321 102.402 277.685 104.913 280.379 105.771" stroke="#030047" stroke-width="1.3" stroke-linecap="round" stroke-linejoin="round"/>
<path d="M302.287 113.625C300.577 116.455 297.619 118.628 294.236 119.529C290.853 120.43 287.091 120.052 284 118.501" stroke="#030047" stroke-width="1.3" stroke-linecap="round" stroke-linejoin="round"/>
<path d="M353.109 92.3135C355.621 91.4092 358.135 90.5018 360.647 89.5975C361.105 89.4322 361.593 89.2638 362.076 89.3528C362.623 89.4529 363.052 89.8788 363.258 90.3556C363.463 90.8323 363.481 91.36 363.467 91.8733C363.4 94.2921 362.668 96.695 361.353 98.7912" stroke="#030047" stroke-width="1.3" stroke-linecap="round" stroke-linejoin="round"/>
<path d="M351.256 163.507L304.474 202.352L293.695 172.29L337.094 151.688L351.256 163.507Z" fill="#030047"/>
<path d="M293.701 172.295L263.164 191.421L265.092 155.629L283.438 152.719L293.701 172.295Z" fill="#030047"/>
<path d="M151.86 37.3637C151.831 37.3637 151.804 37.3532 151.78 37.3324C151.617 37.1915 151.437 37.0937 151.241 37.0391C151.247 37.1835 151.25 37.2637 151.25 37.2796C151.25 37.3078 151.239 37.3318 151.218 37.3514C151.196 37.371 151.169 37.3808 151.137 37.3808C151.104 37.3808 151.077 37.371 151.056 37.3514C151.034 37.3318 151.023 37.3078 151.023 37.2796C151.023 37.2423 151.024 37.1866 151.025 37.1125C151.026 37.0383 151.027 36.9826 151.027 36.9454L151.028 36.3447C151.028 36.3124 151.039 36.2831 151.06 36.2568C151.087 36.2231 151.125 36.2079 151.174 36.2114C151.305 36.2204 151.372 36.2251 151.375 36.2256C151.451 36.234 151.515 36.2507 151.568 36.2755C151.798 36.3822 151.914 36.5144 151.914 36.6722C151.914 36.7373 151.89 36.7946 151.841 36.8445C151.793 36.8944 151.721 36.9365 151.624 36.9707C151.767 37.0441 151.875 37.1191 151.947 37.1955C151.966 37.2153 151.975 37.2374 151.975 37.2617C151.975 37.2896 151.964 37.3134 151.941 37.3335C151.918 37.3536 151.892 37.3637 151.86 37.3637ZM151.342 36.4273C151.337 36.4269 151.306 36.4248 151.247 36.4213V36.8166C151.26 36.8172 151.272 36.8173 151.282 36.8173C151.415 36.8173 151.513 36.8022 151.576 36.7719C151.604 36.759 151.629 36.7419 151.652 36.7206C151.675 36.6992 151.686 36.6831 151.686 36.6722C151.686 36.6166 151.648 36.5631 151.571 36.5115C151.499 36.4629 151.422 36.4347 151.342 36.4273Z" fill="white"/>
<path d="M-87.1875 376.898H446.996" stroke="#030047" stroke-width="1.3" stroke-linecap="round" stroke-linejoin="round"/>
<path d="M468.047 174.897L388.147 128.531C380.642 124.176 378.725 114.879 383.974 108.299L421.991 60.6405C426.25 55.3023 433.976 53.4157 440.552 56.1086L527.776 91.819C536.624 95.4417 539.635 105.619 534.001 112.866L488.661 171.179C483.944 177.244 474.903 178.876 468.047 174.897Z" fill="#FFCC3D"/>
<path d="M402.68 133.242L403.761 150.741C403.98 154.305 407.547 156.884 411.364 156.238L438.918 151.574L402.68 133.242Z" fill="#FFCC3D"/>
<path d="M465.639 150.947L410.865 122.398C405.403 119.552 403.818 113.243 407.326 108.308L430.383 75.8736C433.892 70.9393 441.163 69.246 446.625 72.0925L501.397 100.642C506.859 103.488 508.444 109.797 504.936 114.731L481.881 147.166C478.372 152.1 471.101 153.794 465.639 150.947Z" fill="white"/>
<path d="M497.05 109.999L457.57 116.781C454.2 117.359 450.981 115.683 450.034 112.854L438.922 79.7031" stroke="#030047" stroke-width="1.29575" stroke-linecap="round" stroke-linejoin="round"/>
<path d="M473.34 143.349L461.492 116.102" stroke="#030047" stroke-width="1.29575" stroke-linecap="round" stroke-linejoin="round"/>
<path d="M448.93 109.555L415.211 113.052" stroke="#030047" stroke-width="1.29575" stroke-linecap="round" stroke-linejoin="round"/>
</g>
</g>
<defs>
<clipPath id="clip0_9637_1312">
<rect width="537" height="378" fill="white"/>
</clipPath>
</defs>
</svg>
