<svg width="48" height="46" viewBox="0 0 48 46" fill="none" xmlns="http://www.w3.org/2000/svg">
<path d="M47.2997 44.2202H46.8651L45.2488 40.8646L45.1303 36.717C45.1192 36.3285 44.795 36.0251 44.4068 36.0336C44.3144 36.0363 44.2234 36.0571 44.1391 36.0949C44.0548 36.1326 43.9787 36.1867 43.9152 36.2539C43.8518 36.321 43.8022 36.4001 43.7693 36.4864C43.7364 36.5728 43.7208 36.6648 43.7234 36.7571L43.8462 41.0548C43.849 41.1537 43.8727 41.2509 43.9157 41.34L45.3029 44.2201H16.0367L20.5867 38.5051C20.7635 38.2833 20.8985 38.0312 20.9849 37.7611L24.1278 27.9638C24.2017 27.7329 24.3411 27.5285 24.5291 27.3755L35.2369 18.6493C35.3096 18.5902 35.3988 18.555 35.4923 18.5484C35.5858 18.5418 35.679 18.5642 35.7593 18.6126L37.7017 19.7863C37.7686 19.827 37.8239 19.8841 37.8623 19.9522C37.9008 20.0204 37.9211 20.0973 37.9214 20.1755V25.1882C37.9214 25.8317 38.2072 26.4343 38.7055 26.8414L42.7675 30.1594C43.0141 30.3607 43.2145 30.6128 43.3551 30.8985C43.4957 31.1842 43.5731 31.4968 43.5821 31.8151L43.6376 33.7581C43.6488 34.1465 43.9758 34.4518 44.3612 34.4414C44.4535 34.4388 44.5445 34.418 44.6288 34.3802C44.7132 34.3424 44.7892 34.2884 44.8527 34.2212C44.9161 34.154 44.9657 34.075 44.9987 33.9886C45.0316 33.9023 45.0472 33.8103 45.0445 33.7179L44.989 31.775C44.9743 31.2549 44.8478 30.7441 44.6181 30.2773C44.3885 29.8105 44.061 29.3985 43.6579 29.0695L39.596 25.7516C39.5123 25.6835 39.4449 25.5976 39.3987 25.5002C39.3524 25.4028 39.3285 25.2962 39.3287 25.1884V20.1757C39.3287 19.5277 38.9842 18.917 38.4296 18.5819L36.487 17.4081C35.8156 17.0024 34.9557 17.0627 34.3475 17.5584L29.5774 21.4458C27.1096 19.3257 23.9867 18.1647 20.7155 18.1647C20.1796 18.1647 19.6344 18.1972 19.0951 18.2612C19.0033 18.2721 18.9146 18.301 18.834 18.3461C18.7533 18.3913 18.6824 18.4519 18.6252 18.5245C18.5097 18.6711 18.4572 18.8576 18.4792 19.043C18.5012 19.2283 18.5959 19.3973 18.7425 19.5128C18.8891 19.6283 19.0756 19.6809 19.261 19.6589C19.7437 19.6015 20.2294 19.5726 20.7155 19.5723C23.5632 19.5723 26.2855 20.554 28.4665 22.3511L26.9285 23.6045C25.148 22.2502 22.9647 21.5085 20.7155 21.5085C15.0539 21.5085 10.4477 26.1146 10.4477 31.7762C10.4477 35.9205 12.8992 39.5911 16.6405 41.2016L15.3993 42.7606C11.1986 40.7267 8.51136 36.4739 8.51136 31.7762C8.51136 26.6807 11.7233 22.0762 16.5041 20.3184C16.6792 20.254 16.8216 20.1226 16.9 19.9532C16.9783 19.7838 16.9861 19.5903 16.9217 19.4151C16.8898 19.3284 16.8412 19.2488 16.7785 19.1808C16.7159 19.1129 16.6405 19.058 16.5566 19.0192C16.4727 18.9804 16.382 18.9585 16.2897 18.9548C16.1973 18.9511 16.1052 18.9656 16.0184 18.9975C13.43 19.9492 11.2141 21.6458 9.61057 23.9037C7.97072 26.2126 7.10402 28.935 7.10402 31.7762C7.10402 36.9093 9.98138 41.5656 14.5038 43.8854L14.2374 44.2202H0.80528C0.618642 44.2202 0.439649 44.2943 0.307677 44.4263C0.175704 44.5583 0.101563 44.7373 0.101562 44.9239C0.101563 45.1106 0.175704 45.2896 0.307677 45.4215C0.439649 45.5535 0.618642 45.6276 0.80528 45.6276H47.2997C47.6884 45.6276 48.0034 45.3126 48.0034 44.9239C48.0034 44.5353 47.6884 44.2202 47.2997 44.2202ZM19.9508 36.3777L18.7975 36.3823V32.0648C19.1661 32.0633 19.6295 32.0615 20.06 32.06H21.3359L19.9508 36.3777ZM21.1802 27.1672C21.7781 27.1672 22.3303 27.476 22.6474 27.9714L21.8286 30.5237C21.6225 30.6067 21.4024 30.6494 21.1802 30.6496C20.9542 30.6496 20.5262 30.6508 20.0595 30.6525H18.7975V27.1672H21.1802ZM11.8556 31.7762C11.8556 26.8907 15.8303 22.916 20.716 22.916C22.5361 22.9165 24.312 23.4775 25.8021 24.5228L23.6402 26.2846C23.5236 26.3802 23.4154 26.4855 23.3167 26.5994C23.0209 26.3262 22.6757 26.112 22.2996 25.9683V25.2957C22.2996 25.1091 22.2255 24.9301 22.0935 24.7981C21.9615 24.6662 21.7825 24.592 21.5959 24.592C21.4093 24.592 21.2303 24.6662 21.0983 24.7981C20.9663 24.9301 20.8922 25.1091 20.8922 25.2957V25.7597H19.4234V25.2957C19.4234 25.1091 19.3492 24.9301 19.2173 24.7981C19.0853 24.6662 18.9063 24.592 18.7197 24.592C18.533 24.592 18.354 24.6662 18.2221 24.7981C18.0901 24.9301 18.016 25.1091 18.016 25.2957V25.7597H16.9765C16.7899 25.7597 16.6109 25.8339 16.4789 25.9658C16.3469 26.0978 16.2728 26.2768 16.2728 26.4634C16.2728 26.6501 16.3469 26.8291 16.4789 26.961C16.6109 27.093 16.7899 27.1672 16.9765 27.1672H17.3901V36.3853H16.9765C16.7899 36.3853 16.6109 36.4594 16.4789 36.5914C16.3469 36.7234 16.2728 36.9024 16.2728 37.089C16.2728 37.2757 16.3469 37.4546 16.4789 37.5866C16.6109 37.7186 16.7899 37.7927 16.9765 37.7927H18.0969C18.0969 37.7927 18.6629 37.7902 19.3592 37.7874L17.5546 40.054C14.1269 38.7495 11.8556 35.4822 11.8556 31.7762Z" fill="#1B072C"/>
<path d="M27.979 29.469L25.8201 31.6279C25.6489 31.7982 25.5132 32.0008 25.4208 32.2239C25.3284 32.447 25.2811 32.6863 25.2818 32.9277V36.9611C25.2818 37.3497 25.5968 37.6648 25.9855 37.6648C26.3742 37.6648 26.6892 37.3497 26.6892 36.9611V32.9277C26.6892 32.8126 26.7341 32.7044 26.8154 32.6231L28.9743 30.4643C29.2492 30.1894 29.2492 29.7438 28.9743 29.4691C28.6995 29.1944 28.254 29.1942 27.979 29.469ZM31.1409 26.2114L30.5181 26.8342C30.4197 26.9326 30.3527 27.058 30.3255 27.1945C30.2984 27.331 30.3123 27.4725 30.3656 27.6011C30.4189 27.7297 30.5091 27.8396 30.6248 27.9169C30.7405 27.9942 30.8766 28.0355 31.0158 28.0355C31.1082 28.0356 31.1998 28.0175 31.2852 27.9821C31.3706 27.9467 31.4482 27.8948 31.5134 27.8294L32.1363 27.2065C32.2682 27.0746 32.3424 26.8956 32.3424 26.7089C32.3424 26.5223 32.2682 26.3433 32.1363 26.2114C32.0043 26.0794 31.8253 26.0053 31.6386 26.0053C31.452 26.0053 31.2729 26.0794 31.1409 26.2114ZM39.7756 38.903C39.9623 38.903 40.1413 38.8288 40.2733 38.6968C40.4052 38.5649 40.4794 38.3859 40.4794 38.1992V33.4267C40.4794 33.2401 40.4053 33.0611 40.2733 32.9291L39.1196 31.7754C38.9874 31.6444 38.8087 31.5711 38.6226 31.5715C38.4365 31.5719 38.2582 31.646 38.1266 31.7776C37.995 31.9091 37.9209 32.0875 37.9204 32.2736C37.92 32.4597 37.9933 32.6384 38.1244 32.7706L39.072 33.7182V38.1992C39.072 38.2917 39.0902 38.3832 39.1255 38.4685C39.1609 38.5539 39.2127 38.6315 39.278 38.6969C39.3434 38.7622 39.421 38.8141 39.5063 38.8494C39.5917 38.8848 39.6832 38.903 39.7756 38.903ZM28.6403 18.1394C28.8462 18.3025 29.0924 18.3855 29.3404 18.3855C29.5392 18.3855 29.739 18.3322 29.9199 18.2242L33.7059 15.9652C33.9558 15.8165 34.1386 15.577 34.2161 15.2968C34.2937 15.0165 34.26 14.7171 34.1222 14.4611C33.4027 13.1189 32.3144 12.292 30.8874 12.0032C30.6143 11.9472 30.3301 11.9943 30.0896 12.1354C29.8491 12.2765 29.6693 12.5016 29.585 12.7674L28.2659 16.9127C28.1226 17.3638 28.2694 17.8453 28.6403 18.1394ZM30.848 13.4395C31.6585 13.6603 32.2842 14.1398 32.75 14.8966L29.8302 16.6388L30.848 13.4395ZM26.2738 16.9447C26.4589 16.9686 26.6459 16.9181 26.7938 16.8041C26.9416 16.6902 27.0381 16.5223 27.0621 16.3372L27.3293 14.2728C27.3412 14.1811 27.3349 14.088 27.3108 13.9988C27.2867 13.9096 27.2452 13.826 27.1888 13.7528C27.1324 13.6796 27.0621 13.6182 26.982 13.5722C26.9019 13.5262 26.8134 13.4964 26.7218 13.4845C26.6301 13.4726 26.537 13.4789 26.4478 13.503C26.3586 13.5271 26.275 13.5685 26.2018 13.6249C26.1286 13.6814 26.0672 13.7516 26.0212 13.8318C25.9752 13.9119 25.9454 14.0004 25.9336 14.092L25.6664 16.1565C25.6545 16.2481 25.6608 16.3412 25.6849 16.4304C25.709 16.5196 25.7504 16.6032 25.8068 16.6764C25.8632 16.7496 25.9335 16.811 26.0136 16.857C26.0938 16.9031 26.1822 16.9329 26.2738 16.9447ZM0.893856 29.4214L2.94618 30.4768C3.17812 30.5968 3.43539 30.6596 3.69653 30.6599C3.87105 30.6599 4.04642 30.6317 4.21709 30.5751C4.425 30.5068 4.61705 30.3974 4.78183 30.2534C4.94661 30.1094 5.08076 29.9337 5.1763 29.7368L14.4315 10.8582C14.491 10.864 14.5504 10.8676 14.6098 10.8676C14.92 10.8671 15.2251 10.7882 15.4967 10.6382L23.2247 14.6122C23.4295 14.7181 23.6612 14.7605 23.8903 14.7343C24.1194 14.708 24.3355 14.6142 24.5111 14.4648C24.6873 14.3161 24.8152 14.1183 24.8786 13.8966C24.942 13.6749 24.938 13.4394 24.8672 13.22L24.7614 12.8903C23.943 10.3392 22.1803 8.25945 19.7976 7.03414L18.0132 6.11658C18.0341 5.84773 17.9956 5.57757 17.9004 5.32528C17.8051 5.07299 17.6555 4.84476 17.4622 4.65679L18.1438 3.26155C18.534 2.46307 18.2084 1.48274 17.418 1.07618L16.3891 0.547175C15.599 0.140707 14.6119 0.446027 14.1893 1.228L13.4516 2.59302C13.1554 2.53863 12.8502 2.55862 12.5636 2.6512C12.3359 2.72386 12.1248 2.84047 11.942 2.99442L10.1588 2.07743C7.7764 0.8524 5.0593 0.628337 2.50809 1.44662L2.17847 1.55236C1.72809 1.69677 1.41198 2.0947 1.37304 2.56609C1.3341 3.03749 1.58078 3.48186 2.00151 3.69823L9.72739 7.67123C9.74118 7.78833 9.76623 7.90496 9.80301 8.01971C9.87954 8.25845 10.0045 8.47884 10.17 8.66713L3.85191 20.395C3.76339 20.5593 3.74378 20.7521 3.79737 20.9308C3.85097 21.1096 3.9734 21.2598 4.13771 21.3483C4.30203 21.4368 4.49478 21.4564 4.67355 21.4028C4.85233 21.3492 5.0025 21.2268 5.09101 21.0625L11.3612 9.4234L13.1231 10.3295L3.91215 29.1181C3.89831 29.1466 3.87891 29.172 3.85509 29.1928C3.83127 29.2136 3.80352 29.2295 3.77347 29.2394C3.74345 29.2495 3.71173 29.2534 3.68017 29.251C3.64862 29.2485 3.61787 29.2398 3.58975 29.2253L1.53743 28.1699C1.50925 28.1555 1.48424 28.1355 1.46389 28.1113C1.44353 28.0871 1.42824 28.059 1.41892 28.0287C1.40951 27.9984 1.40629 27.9664 1.40946 27.9348C1.41264 27.9031 1.42214 27.8725 1.43741 27.8446L3.668 23.704C3.75652 23.5397 3.77614 23.3469 3.72254 23.1681C3.66894 22.9894 3.54652 22.8392 3.3822 22.7507C3.21788 22.6622 3.02514 22.6425 2.84636 22.6961C2.66758 22.7497 2.51741 22.8722 2.4289 23.0365L0.19877 27.1762C-0.0131892 27.5684 -0.0572889 28.019 0.074447 28.4449C0.206183 28.8708 0.497334 29.2176 0.893856 29.4214ZM23.3443 13.0911L16.4174 9.52895L17.4953 7.43291L19.1541 8.28591C21.1305 9.30226 22.6109 11.0025 23.3443 13.0911ZM15.7457 1.79895L16.7745 2.32795C16.8296 2.35669 16.8713 2.40572 16.8909 2.46468C16.9105 2.52364 16.9064 2.5879 16.8794 2.64388L16.245 3.94219L14.7407 3.16857L15.4277 1.89737C15.4575 1.84284 15.5074 1.80207 15.5667 1.78369C15.6261 1.76532 15.6903 1.77079 15.7457 1.79895ZM12.9936 3.99154C13.0462 3.9745 13.1018 3.96807 13.157 3.97263C13.2121 3.97718 13.2659 3.99264 13.315 4.0181L16.3833 5.59592C16.4826 5.64715 16.5576 5.73567 16.5917 5.84207C16.6258 5.94847 16.6164 6.06407 16.5654 6.1635L14.9875 9.2318C14.9363 9.33108 14.8478 9.406 14.7414 9.44013C14.635 9.47425 14.5195 9.46479 14.4201 9.41383L11.3517 7.8359C11.3023 7.81073 11.2585 7.77603 11.2227 7.7338C11.1869 7.69157 11.1598 7.64265 11.1431 7.58988C11.126 7.53722 11.1196 7.4817 11.1242 7.42654C11.1287 7.37138 11.1442 7.31767 11.1696 7.26852L12.7476 4.20012C12.7727 4.15081 12.8074 4.10698 12.8497 4.07117C12.8919 4.03537 12.9408 4.0083 12.9936 3.99154ZM9.51533 3.3292L11.174 4.1822L10.0961 6.27834L3.16921 2.71613C5.29472 2.09789 7.53892 2.31285 9.51533 3.3292Z" fill="#1B072C"/>
</svg>
