<svg width="28" height="28" viewBox="0 0 28 28" fill="none" xmlns="http://www.w3.org/2000/svg">
<g clip-path="url(#clip0_9508_36408)">
<path d="M14 28C21.732 28 28 21.732 28 14C28 6.26801 21.732 0 14 0C6.26801 0 0 6.26801 0 14C0 21.732 6.26801 28 14 28Z" fill="url(#paint0_linear_9508_36408)"/>
<path d="M14.0009 26.408C7.16042 26.408 1.59375 20.8413 1.59375 14.0009C1.59375 7.16042 7.16042 1.59375 14.0009 1.59375C20.8413 1.59375 26.408 7.16042 26.408 14.0009C26.408 20.8413 20.8413 26.408 14.0009 26.408Z" fill="url(#paint1_linear_9508_36408)"/>
<path d="M7.39062 14.0028C7.39062 9.89908 10.438 6.75 14.6434 6.75C17.174 6.75 19.4051 8.00398 20.6196 9.97816L17.8716 11.5711C17.253 10.495 16.0584 9.85672 14.6434 9.85672C12.1721 9.85672 10.5792 11.5089 10.5792 14C10.5792 16.491 12.1721 18.1432 14.6434 18.1432C16.0584 18.1432 17.2728 17.5049 17.8716 16.4288L20.6196 18.0217C19.4249 19.9931 17.1937 21.2499 14.6434 21.2499C10.4409 21.2499 7.39062 18.1036 7.39062 13.9971V14.0028Z" fill="white"/>
<path d="M5.35211 14.3849C5.56394 14.3849 5.73622 14.2126 5.73622 14.0007C5.73622 13.7889 5.56394 13.6166 5.35211 13.6166H4.04447C4.24217 8.4256 8.42776 4.23718 13.6216 4.03948V5.1692C13.6216 5.38102 13.7939 5.5533 14.0057 5.5533C14.2176 5.5533 14.3898 5.38102 14.3898 5.1692V3.64973C14.3898 3.43791 14.2176 3.26562 14.0057 3.26562C8.08885 3.26562 3.27344 8.08104 3.27344 13.9979C3.27344 14.2097 3.44572 14.382 3.65754 14.382H5.35494L5.35211 14.3849Z" fill="white"/>
<path d="M24.3475 13.6218H16.1966C16.0187 12.8253 15.3069 12.2266 14.4568 12.2266C13.474 12.2266 12.6719 13.0258 12.6719 14.0115C12.6719 14.9972 13.4711 15.7965 14.4568 15.7965C15.3098 15.7965 16.0243 15.1921 16.1994 14.39H23.9577C23.76 19.581 19.5744 23.7694 14.3806 23.9671V23.0295C14.3806 22.8176 14.2083 22.6454 13.9965 22.6454C13.7846 22.6454 13.6124 22.8176 13.6124 23.0295V24.3569C13.6124 24.5687 13.7846 24.741 13.9965 24.741C19.9134 24.741 24.7288 19.9256 24.7288 14.0087C24.7288 13.7969 24.5565 13.6246 24.3447 13.6246L24.3475 13.6218ZM14.4568 15.0283C13.8948 15.0283 13.4401 14.5707 13.4401 14.0115C13.4401 13.4523 13.8976 12.9948 14.4568 12.9948C15.016 12.9948 15.4736 13.4523 15.4736 14.0115C15.4736 14.5707 15.016 15.0283 14.4568 15.0283Z" fill="white"/>
<path d="M17.1379 4.54448C20.2983 5.59229 22.7159 8.13133 23.6027 11.3397C23.6507 11.5092 23.8032 11.6193 23.9727 11.6193C24.0066 11.6193 24.0405 11.6137 24.0744 11.6052C24.2777 11.5487 24.3963 11.3369 24.3398 11.1335C23.3824 7.67944 20.7812 4.94553 17.378 3.81581C17.1774 3.75085 16.96 3.85818 16.895 4.0587C16.8272 4.25923 16.9374 4.4767 17.1379 4.54165V4.54448Z" fill="white"/>
<path d="M11.3965 23.6255C7.90002 22.6794 5.19153 19.9088 4.32447 16.3925C4.27364 16.1864 4.06746 16.0621 3.86129 16.1129C3.65512 16.1638 3.53085 16.3699 3.58168 16.5761C4.5137 20.3635 7.43119 23.3488 11.196 24.3655C11.2299 24.374 11.2638 24.3796 11.2976 24.3796C11.4671 24.3796 11.6196 24.2667 11.6676 24.0972C11.7241 23.8938 11.6027 23.682 11.3993 23.6284L11.3965 23.6255Z" fill="white"/>
</g>
<defs>
<linearGradient id="paint0_linear_9508_36408" x1="-6.54254e-08" y1="13.8313" x2="28" y2="13.8313" gradientUnits="userSpaceOnUse">
<stop stop-color="#9B60DA"/>
<stop offset="1" stop-color="#F15E55"/>
</linearGradient>
<linearGradient id="paint1_linear_9508_36408" x1="1.59375" y1="13.8514" x2="26.408" y2="13.8514" gradientUnits="userSpaceOnUse">
<stop stop-color="#9B60DA"/>
<stop offset="1" stop-color="#F15E55"/>
</linearGradient>
<clipPath id="clip0_9508_36408">
<rect width="28" height="28" fill="white"/>
</clipPath>
</defs>
</svg>
