<svg width="46" height="46" viewBox="0 0 46 46" fill="none" xmlns="http://www.w3.org/2000/svg">
<path d="M9.5 27.5H2C1.60218 27.5 1.22064 27.658 0.93934 27.9393C0.658035 28.2206 0.5 28.6022 0.5 29V44.75C0.5 44.9489 0.579018 45.1397 0.71967 45.2803C0.860322 45.421 1.05109 45.5 1.25 45.5H10.25C10.4489 45.5 10.6397 45.421 10.7803 45.2803C10.921 45.1397 11 44.9489 11 44.75V29C11 28.6022 10.842 28.2206 10.5607 27.9393C10.2794 27.658 9.89782 27.5 9.5 27.5ZM9.5 44H2V29H9.5V44Z" fill="#1B072C"/>
<path d="M11 2C11.4142 2 11.75 1.66421 11.75 1.25C11.75 0.835786 11.4142 0.5 11 0.5C10.5858 0.5 10.25 0.835786 10.25 1.25C10.25 1.66421 10.5858 2 11 2Z" fill="#1B072C"/>
<path d="M44 14H36.5C36.1022 14 35.7206 14.158 35.4393 14.4393C35.158 14.7206 35 15.1022 35 15.5V24.227C32.79 23.5063 30.3946 23.6032 28.25 24.5V21.5C28.25 21.1022 28.092 20.7206 27.8107 20.4393C27.5294 20.158 27.1478 20 26.75 20H19.25C18.8522 20 18.4706 20.158 18.1893 20.4393C17.908 20.7206 17.75 21.1022 17.75 21.5V44.75C17.75 44.9489 17.829 45.1397 17.9697 45.2803C18.1103 45.421 18.3011 45.5 18.5 45.5H27.5C27.6989 45.5 27.8897 45.421 28.0303 45.2803C28.171 45.1397 28.25 44.9489 28.25 44.75V42.5C30.3943 43.3976 32.7897 43.4952 35 42.7752V44.75C35 44.9489 35.079 45.1397 35.2197 45.2803C35.3603 45.421 35.5511 45.5 35.75 45.5H44.75C44.9489 45.5 45.1397 45.421 45.2803 45.2803C45.421 45.1397 45.5 44.9489 45.5 44.75V15.5C45.5 15.1022 45.342 14.7206 45.0607 14.4393C44.7794 14.158 44.3978 14 44 14ZM26.75 44H19.25V21.5H26.75V25.2972C25.3708 26.1759 24.2354 27.3882 23.4488 28.822C22.6622 30.2557 22.2499 31.8647 22.2499 33.5C22.2499 35.1353 22.6622 36.7443 23.4488 38.178C24.2354 39.6118 25.3708 40.8241 26.75 41.7028V44ZM32 41.75C30.3683 41.75 28.7733 41.2661 27.4165 40.3596C26.0598 39.4531 25.0024 38.1646 24.378 36.6571C23.7536 35.1496 23.5902 33.4908 23.9085 31.8905C24.2268 30.2902 25.0126 28.8202 26.1664 27.6664C27.3202 26.5126 28.7902 25.7268 30.3905 25.4085C31.9908 25.0902 33.6496 25.2536 35.1571 25.878C36.6646 26.5024 37.9531 27.5598 38.8596 28.9165C39.7661 30.2733 40.25 31.8683 40.25 33.5C40.2474 35.6872 39.3774 37.7842 37.8308 39.3308C36.2842 40.8774 34.1872 41.7474 32 41.75ZM44 44H36.5V42.1408C38.0824 41.3193 39.4088 40.079 40.3346 38.5553C41.2604 37.0316 41.75 35.2829 41.75 33.5C41.75 31.7171 41.2604 29.9684 40.3346 28.4447C39.4088 26.921 38.0824 25.6807 36.5 24.8593V15.5H44V44Z" fill="#1B072C"/>
<path d="M34.248 28.2486V27.4986C34.248 27.2997 34.169 27.109 34.0284 26.9683C33.8877 26.8277 33.697 26.7486 33.498 26.7486C33.2991 26.7486 33.1084 26.8277 32.9677 26.9683C32.8271 27.109 32.748 27.2997 32.748 27.4986V28.2486H31.248V27.4986C31.248 27.2997 31.169 27.109 31.0284 26.9683C30.8877 26.8277 30.697 26.7486 30.498 26.7486C30.2991 26.7486 30.1084 26.8277 29.9677 26.9683C29.8271 27.109 29.748 27.2997 29.748 27.4986V28.2486H27.498C27.2991 28.2486 27.1084 28.3277 26.9677 28.4683C26.8271 28.609 26.748 28.7997 26.748 28.9986C26.748 29.1976 26.8271 29.3883 26.9677 29.529C27.1084 29.6696 27.2991 29.7486 27.498 29.7486H28.248V37.2486H27.498C27.2991 37.2486 27.1084 37.3277 26.9677 37.4683C26.8271 37.609 26.748 37.7997 26.748 37.9986C26.748 38.1976 26.8271 38.3883 26.9677 38.529C27.1084 38.6696 27.2991 38.7486 27.498 38.7486H29.748V39.4986C29.748 39.6976 29.8271 39.8883 29.9677 40.029C30.1084 40.1696 30.2991 40.2486 30.498 40.2486C30.697 40.2486 30.8877 40.1696 31.0284 40.029C31.169 39.8883 31.248 39.6976 31.248 39.4986V38.7486H32.748V39.4986C32.748 39.6976 32.8271 39.8883 32.9677 40.029C33.1084 40.1696 33.2991 40.2486 33.498 40.2486C33.697 40.2486 33.8877 40.1696 34.0284 40.029C34.169 39.8883 34.248 39.6976 34.248 39.4986V38.7486C34.8588 38.7514 35.4558 38.5668 35.9584 38.2197C36.4611 37.8727 36.8453 37.38 37.0593 36.8079C37.2732 36.2358 37.3067 35.6118 37.1551 35.0201C37.0035 34.4284 36.6742 33.8974 36.2115 33.4986C36.6742 33.0999 37.0035 32.5689 37.1551 31.9772C37.3067 31.3855 37.2732 30.7615 37.0593 30.1894C36.8453 29.6173 36.4611 29.1246 35.9584 28.7775C35.4558 28.4305 34.8588 28.2459 34.248 28.2486ZM34.248 37.2486H29.748V34.2486H34.248C34.6459 34.2486 35.0274 34.4067 35.3087 34.688C35.59 34.9693 35.748 35.3508 35.748 35.7486C35.748 36.1465 35.59 36.528 35.3087 36.8093C35.0274 37.0906 34.6459 37.2486 34.248 37.2486ZM34.248 32.7486H29.748V29.7486H34.248C34.6459 29.7486 35.0274 29.9067 35.3087 30.188C35.59 30.4693 35.748 30.8508 35.748 31.2486C35.748 31.6465 35.59 32.028 35.3087 32.3093C35.0274 32.5906 34.6459 32.7486 34.248 32.7486ZM1.24804 1.99865H7.99804C8.19695 1.99865 8.38772 1.91963 8.52837 1.77898C8.66902 1.63833 8.74804 1.44756 8.74804 1.24865C8.74804 1.04974 8.66902 0.858972 8.52837 0.71832C8.38772 0.577668 8.19695 0.49865 7.99804 0.49865H1.24804C1.04913 0.49865 0.858365 0.577668 0.717712 0.71832C0.57706 0.858972 0.498042 1.04974 0.498042 1.24865C0.498042 1.44756 0.57706 1.63833 0.717712 1.77898C0.858365 1.91963 1.04913 1.99865 1.24804 1.99865ZM1.24804 5.74865H10.998C11.197 5.74865 11.3877 5.66963 11.5284 5.52898C11.669 5.38833 11.748 5.19756 11.748 4.99865C11.748 4.79974 11.669 4.60897 11.5284 4.46832C11.3877 4.32767 11.197 4.24865 10.998 4.24865H1.24804C1.04913 4.24865 0.858365 4.32767 0.717712 4.46832C0.57706 4.60897 0.498042 4.79974 0.498042 4.99865C0.498042 5.19756 0.57706 5.38833 0.717712 5.52898C0.858365 5.66963 1.04913 5.74865 1.24804 5.74865ZM2.18554 24.9974C2.61089 25.4127 3.18181 25.6452 3.77629 25.6452C4.37078 25.6452 4.94169 25.4127 5.36704 24.9974C8.72854 21.5639 18.957 11.4081 18.957 11.4081C18.957 11.4081 23.007 15.8384 24.3413 17.3331C24.6169 17.6294 24.949 17.8675 25.3181 18.0335C25.6871 18.1994 26.0856 18.2898 26.4901 18.2994C26.8947 18.309 27.297 18.2375 27.6735 18.0892C28.05 17.9409 28.393 17.7188 28.6823 17.4359C31.0178 15.0487 38.1278 7.98665 38.1278 7.98665C38.1278 7.98665 38.4458 8.30165 38.5493 8.4089C38.7553 8.60704 39.0132 8.74282 39.2932 8.80054C39.5731 8.85826 39.8637 8.83556 40.1313 8.73506C40.3989 8.63457 40.6326 8.46038 40.8054 8.23265C40.9781 8.00491 41.0829 7.73293 41.1075 7.44815C41.1728 6.0839 41.4705 1.99865 41.4705 1.99865C41.4833 1.78553 41.4508 1.57211 41.375 1.3725C41.2993 1.17288 41.182 0.991606 41.0311 0.840633C40.8801 0.689661 40.6988 0.572427 40.4992 0.49667C40.2996 0.420913 40.0862 0.388357 39.873 0.40115L34.422 0.7649C34.1363 0.787489 33.863 0.891006 33.634 1.06333C33.405 1.23565 33.2299 1.46965 33.1291 1.73792C33.0283 2.00619 33.006 2.29763 33.0648 2.57811C33.1236 2.85859 33.2612 3.11651 33.4613 3.32165L33.8843 3.74465L26.6633 10.9657C26.6633 10.9657 22.635 6.5804 21.3233 5.09165C21.0507 4.78498 20.7186 4.53689 20.3472 4.36244C19.9758 4.18798 19.5729 4.09079 19.1628 4.07676C18.7527 4.06273 18.3441 4.13216 17.9617 4.28084C17.5792 4.42951 17.231 4.65433 16.938 4.94165C13.005 8.91215 5.12254 16.8486 1.12504 20.7539C0.709323 21.1792 0.476562 21.7503 0.476562 22.345C0.476562 22.9398 0.709323 23.5109 1.12504 23.9361C1.39279 24.1987 1.92304 24.7289 2.18554 24.9974ZM2.18554 21.8144C6.19804 17.9197 14.148 10.0544 18.0008 5.9999C18.1522 5.86006 18.3299 5.75165 18.5235 5.68095C18.7171 5.61025 18.9229 5.57866 19.1288 5.588C19.3347 5.59735 19.5367 5.64745 19.7231 5.7354C19.9095 5.82336 20.0766 5.94742 20.2148 6.1004C21.6053 7.78115 24.6398 10.9222 26.0835 12.5564C26.1528 12.6299 26.2359 12.6889 26.3282 12.7301C26.4204 12.7712 26.5199 12.7936 26.6208 12.7959C26.7218 12.7983 26.8222 12.7806 26.9163 12.7439C27.0103 12.7071 27.0962 12.6521 27.1688 12.5819C29.208 10.4684 35.4765 4.2749 35.4765 4.2749C35.6171 4.13425 35.6961 3.94352 35.6961 3.74465C35.6961 3.54578 35.6171 3.35505 35.4765 3.2144L34.5233 2.26115L39.9735 1.8974L39.6105 7.3484L38.658 6.3959C38.5174 6.2553 38.3267 6.17631 38.1278 6.17631C37.9289 6.17631 37.7382 6.2553 37.5975 6.3959C37.5975 6.3959 30.0938 13.8569 27.6225 16.3709C27.4778 16.512 27.3063 16.6228 27.1181 16.6967C26.9299 16.7707 26.7289 16.8063 26.5268 16.8014C26.3247 16.7966 26.1256 16.7515 25.9411 16.6686C25.7567 16.5858 25.5907 16.467 25.4528 16.3192C23.9888 14.6804 21.0195 11.4389 19.5398 9.81515C19.4715 9.74008 19.3887 9.67965 19.2963 9.63752C19.204 9.59539 19.1041 9.57244 19.0026 9.57005C18.9012 9.56767 18.8003 9.5859 18.7061 9.62365C18.6119 9.66139 18.5263 9.71787 18.4545 9.78965C14.9175 13.3259 7.80454 20.3594 4.30804 23.9347C4.16626 24.0731 3.97595 24.1506 3.77779 24.1506C3.57963 24.1506 3.38933 24.0731 3.24754 23.9347C2.98504 23.6662 2.45479 23.1359 2.18704 22.8734C2.0485 22.7321 1.97077 22.5421 1.97049 22.3442C1.97021 22.1463 2.0474 21.9561 2.18554 21.8144Z" fill="#1B072C"/>
</svg>
