<svg width="40" height="40" viewBox="0 0 40 40" fill="none" xmlns="http://www.w3.org/2000/svg">
<g id="Group">
<path id="Vector" d="M4.07242 9.0032C2.27859 10.9144 1.17969 13.4855 1.17969 16.3136C1.17969 22.2153 5.96399 26.9995 11.8656 26.9995C17.7673 26.9995 22.5516 22.2152 22.5516 16.3136C22.5516 13.1162 21.1469 10.2474 18.9215 8.28906" stroke="#6AFFB3" stroke-miterlimit="10" stroke-linejoin="round"/>
<path id="Vector_2" d="M14.8803 18.072C14.8803 19.2206 13.9491 20.1518 12.8005 20.1518L10.1641 20.161V15.9922H12.8005C13.9491 15.9922 14.8803 16.9234 14.8803 18.072Z" stroke="#6AFFB3" stroke-miterlimit="10" stroke-linejoin="round"/>
<path id="Vector_3" d="M10.1641 15.9979V12.4342H12.4085C13.3905 12.4342 14.1865 13.2302 14.1865 14.2122C14.1865 15.1941 13.3905 15.9901 12.4085 15.9901M12.7449 11.3311V12.466M10.9345 11.3311V12.4342M12.7449 20.1519V21.2959M10.9345 20.1609V21.2641M29.5962 20.443C29.5962 20.443 28.7636 19.6751 27.4801 20.0616C26.3016 20.4166 26.0089 22.0291 26.8098 22.6572C27.2696 23.0179 27.9616 23.3144 28.8941 23.6441C30.9812 24.3818 30.2096 27.3252 28.0866 27.3393C27.2581 27.3449 26.8708 27.2922 26.143 26.8161M28.0866 18.9592V28.4137M34.7987 3.92935L30.8282 0.849972C30.0085 0.214269 28.8163 0.79841 28.8163 1.83568C28.8163 2.02918 28.7394 2.21476 28.6026 2.35159C28.4657 2.48842 28.2801 2.56528 28.0866 2.56528H12.8773C11.9452 2.56528 11.1895 3.32091 11.1895 4.2531V6.60114C11.1895 7.53325 11.9452 8.28896 12.8773 8.28896H28.0866C28.2801 8.28896 28.4657 8.36583 28.6026 8.50265C28.7394 8.63948 28.8163 8.82506 28.8163 9.01857C28.8163 10.0558 30.0086 10.6401 30.8282 10.0043L34.7987 6.92482C35.7771 6.16607 35.7771 4.68818 34.7987 3.92935Z" stroke="#6AFFB3" stroke-miterlimit="10" stroke-linecap="round" stroke-linejoin="round"/>
<path id="Vector_4" d="M12.4854 8.24195C12.2803 8.2265 12.0746 8.21876 11.8689 8.21875C7.39789 8.21875 3.77344 11.8432 3.77344 16.3142C3.77344 20.7852 7.39789 24.4097 11.8689 24.4097C16.3399 24.4097 19.9644 20.7852 19.9644 16.3142C19.9644 12.2071 16.9058 8.81484 12.9423 8.28969M24.7287 37.4354H27.1248C28.0569 37.4354 28.8126 36.6798 28.8126 35.7476V34.3511M21.078 31.7117H11.9155C11.722 31.7117 11.5364 31.6348 11.3996 31.498C11.2627 31.3612 11.1859 31.1756 11.1859 30.9821C11.1859 29.9448 9.99351 29.3606 9.17391 29.9963L5.20344 33.0758C4.22508 33.8346 4.22508 35.3124 5.20344 36.0712L9.17391 39.1507C9.99359 39.7864 11.1859 39.2023 11.1859 38.165C11.1859 37.9715 11.2627 37.7859 11.3996 37.6491C11.5364 37.5123 11.722 37.4354 11.9155 37.4354H21.9944M20.0545 23.1827C20.0439 23.3506 20.0386 23.5189 20.0384 23.6872C20.0384 28.1582 23.6628 31.7827 28.1338 31.7827C32.6048 31.7827 36.2293 28.1582 36.2293 23.6872C36.2293 19.2162 32.6048 15.5917 28.1338 15.5917C25.9095 15.5917 23.895 16.489 22.4318 17.9411" stroke="#6AFFB3" stroke-miterlimit="10" stroke-linecap="round" stroke-linejoin="round"/>
<path id="Vector_5" d="M17.5709 25.3471C18.3692 30.4595 22.7916 34.3713 28.128 34.3713C34.0298 34.3713 38.814 29.587 38.814 23.6853C38.814 17.7837 34.0297 12.9994 28.128 12.9994C26.029 12.9994 24.0716 13.6051 22.4202 14.6505M11.1843 5.64844C9.40724 5.75855 7.68633 6.31346 6.17969 7.26219" stroke="#6AFFB3" stroke-miterlimit="10" stroke-linecap="round" stroke-linejoin="round"/>
</g>
</svg>
